# xmcd
#
# Track frame offsets: 
#        150
#        20400
#        44888
#        63151
#        83215
#        101952
#        124118
#        143498
#        160439
#        190008
#
# Disc length: 2894 seconds
#
# Revision: 0
# Processed by: cddbd v1.5.2PL0 Copyright (c) Steve Scherf et al.
# Submitted via: ExactAudioCopy v0.99pb5
#
DISCID=880b4c0a
DTITLE=Andrew "Jr. Boy" Jones - Gettin' Real
DYEAR=2009
DGENRE=Blues
TTITLE0=Struggle
TTITLE1=People Say I'm Crazy 
TTITLE2=Negative Talkin' 
TTITLE3=Lonely Times 
TTITLE4=Don't Let the Green Grass Fool You 
TTITLE5=Don't Get It Twisted 
TTITLE6=Good Lovin' 
TTITLE7=Just Playin' the Blues 
TTITLE8=Hell in My House 
TTITLE9=What's Goin' On 
EXTD=
EXTT0=
EXTT1=
EXTT2=
EXTT3=
EXTT4=
EXTT5=
EXTT6=
EXTT7=
EXTT8=
EXTT9=
PLAYORDER=
